<svg width="32" height="32" viewBox="0 0 32 32" fill="none" xmlns="http://www.w3.org/2000/svg">
<g id="icon-phone" clip-path="url(#clip0_26_213)">
<path id="Vector" d="M16 0C7.164 0 0 7.164 0 16C0 24.836 7.164 32 16 32C24.836 32 32 24.836 32 16C32 7.164 24.836 0 16 0ZM23.7775 22.0605C23.418 22.4025 23.1055 22.781 22.746 23.043C21.875 23.666 20.789 24 19.527 24.0155C18.287 24.031 17.283 23.652 16.367 23.2145C14.578 22.359 13.1405 21.105 11.773 19.703C10.429 18.32 9.1735 16.668 8.437 14.8165C7.519 12.504 7.845 10.0705 9.101 8.508C9.312 8.2425 9.6535 7.959 9.9645 7.672C10.277 7.379 10.5585 7.0355 11.0075 6.93C12.029 6.69 12.7535 7.8205 13.3025 8.602C13.8355 9.356 14.49 10.2425 14.285 11.266C14.1735 11.8365 13.6735 12.1685 13.3005 12.522C12.9315 12.8675 12.361 13.1995 12.242 13.7115C12.0465 14.5475 12.5895 15.391 12.9255 15.8695C13.6835 16.9515 14.5875 17.9185 15.7245 18.766C16.2735 19.178 17.037 19.727 17.7695 19.5455C18.8635 19.274 19.0975 17.899 20.291 17.6645C21.4275 17.442 22.2385 18.2385 22.908 18.766C23.5545 19.2775 24.5895 19.9225 24.5605 20.846C24.543 21.377 24.133 21.7245 23.7775 22.0605Z" fill="#6758BE"/>
</g>
<defs>
<clipPath id="clip0_26_213">
<rect width="32" height="32" fill="white"/>
</clipPath>
</defs>
</svg>
