<svg width="32" height="32" viewBox="0 0 32 32" fill="none" xmlns="http://www.w3.org/2000/svg">
<g id="Frame 3">
<path id="Vector" fill-rule="evenodd" clip-rule="evenodd" d="M28.381 12.1905C28.381 5.457 22.9245 0 16.1905 0C9.45851 0 4.00001 5.457 4.00001 12.1905C3.99672 14.9613 4.94155 17.6499 6.67751 19.8095H6.66651L16.1905 32L25.7145 19.8095H25.704C27.4398 17.6498 28.3844 14.9613 28.381 12.1905ZM16.1905 16.7615C14.9781 16.7615 13.8153 16.2799 12.958 15.4225C12.1006 14.5652 11.619 13.4024 11.619 12.19C11.6189 11.5896 11.737 10.9951 11.9667 10.4404C12.1964 9.88571 12.5331 9.3817 12.9577 8.95717C13.3822 8.53264 13.8862 8.19591 14.4409 7.96622C14.9956 7.73652 15.5901 7.61837 16.1905 7.6185C17.4029 7.6185 18.5657 8.10014 19.423 8.95746C20.2804 9.81478 20.762 10.9776 20.762 12.19C20.762 13.4024 20.2804 14.5652 19.423 15.4225C18.5657 16.2799 17.4029 16.7615 16.1905 16.7615Z" fill="#6758BE"/>
</g>
</svg>
