<svg width="18" height="18" viewBox="0 0 18 18" fill="none" xmlns="http://www.w3.org/2000/svg">
<g id="Frame 5">
<path id="Vector" d="M10.4362 3.8784C10.1394 4.04974 10.0384 4.42663 10.2098 4.72341L13.3071 10.0882C14.1624 11.5696 13.6568 13.4645 12.1729 14.3212C10.6889 15.1779 8.79513 14.6684 7.93984 13.187L4.22244 6.74825C3.70985 5.86041 4.01242 4.72327 4.90277 4.20923C5.79313 3.69518 6.92921 4.00172 7.4418 4.88956L10.5406 10.2568C10.7119 10.5536 10.6084 10.9319 10.3142 11.1018C10.0199 11.2717 9.6405 11.1722 9.46915 10.8754L6.99041 6.58211C6.81906 6.28533 6.43966 6.18579 6.14539 6.35569C5.8486 6.52704 5.74762 6.90392 5.91897 7.20071L8.39771 11.494C8.91176 12.3844 10.0464 12.6884 10.9367 12.1743C11.8271 11.6603 12.1311 10.5257 11.6171 9.63532L8.51972 4.27057C7.66192 2.79062 5.76558 2.28249 4.28418 3.13778C2.80277 3.99308 2.29716 5.88796 3.15245 7.36936L6.86985 13.8081C8.06783 15.8831 10.7205 16.5917 12.7929 15.3952C14.8654 14.1986 15.5765 11.5445 14.38 9.47209L11.2812 4.10482C11.1099 3.80803 10.733 3.70705 10.4362 3.8784Z" fill="#6758BE"/>
</g>
</svg>
