<svg width="224" height="224" viewBox="0 0 224 224" fill="none" xmlns="http://www.w3.org/2000/svg">
<g id="ph:seal-check-duotone">
<g id="Group">
<path id="Vector" opacity="0.2" d="M203 112C203 122.946 187.408 131.206 183.155 141.479C179.06 151.384 184.397 168.298 176.347 176.347C168.298 184.397 151.384 179.06 141.479 183.155C131.25 187.408 122.938 203 112 203C101.062 203 92.75 187.408 82.5212 183.155C72.6162 179.06 55.7025 184.397 47.6525 176.347C39.6025 168.298 44.94 151.384 40.845 141.479C36.5925 131.25 21 122.938 21 112C21 101.062 36.5925 92.75 40.845 82.5212C44.94 72.625 39.6025 55.7025 47.6525 47.6525C55.7025 39.6025 72.625 44.94 82.5212 40.845C92.7937 36.5925 101.062 21 112 21C122.938 21 131.25 36.5925 141.479 40.845C151.384 44.94 168.298 39.6025 176.347 47.6525C184.397 55.7025 179.06 72.6162 183.155 82.5212C187.408 92.7937 203 101.062 203 112Z" fill="#6758BE"/>
<path id="Vector_2" d="M197.628 89.9675C194.329 86.52 190.916 82.9675 189.63 79.8438C188.44 76.9825 188.37 72.24 188.3 67.6462C188.169 59.1062 188.029 49.4287 181.3 42.7C174.571 35.9712 164.894 35.8312 156.354 35.7C151.76 35.63 147.018 35.56 144.156 34.37C141.041 33.0837 137.48 29.6712 134.032 26.3725C127.995 20.5712 121.135 14 112 14C102.865 14 96.0137 20.5712 89.9675 26.3725C86.52 29.6712 82.9675 33.0837 79.8438 34.37C77 35.56 72.24 35.63 67.6462 35.7C59.1062 35.8312 49.4287 35.9712 42.7 42.7C35.9712 49.4287 35.875 59.1062 35.7 67.6462C35.63 72.24 35.56 76.9825 34.37 79.8438C33.0837 82.9587 29.6712 86.52 26.3725 89.9675C20.5712 96.005 14 102.865 14 112C14 121.135 20.5712 127.986 26.3725 134.032C29.6712 137.48 33.0837 141.033 34.37 144.156C35.56 147.018 35.63 151.76 35.7 156.354C35.8312 164.894 35.9712 174.571 42.7 181.3C49.4287 188.029 59.1062 188.169 67.6462 188.3C72.24 188.37 76.9825 188.44 79.8438 189.63C82.9587 190.916 86.52 194.329 89.9675 197.628C96.005 203.429 102.865 210 112 210C121.135 210 127.986 203.429 134.032 197.628C137.48 194.329 141.033 190.916 144.156 189.63C147.018 188.44 151.76 188.37 156.354 188.3C164.894 188.169 174.571 188.029 181.3 181.3C188.029 174.571 188.169 164.894 188.3 156.354C188.37 151.76 188.44 147.018 189.63 144.156C190.916 141.041 194.329 137.48 197.628 134.032C203.429 127.995 210 121.135 210 112C210 102.865 203.429 96.0137 197.628 89.9675ZM187.521 124.346C183.33 128.721 178.99 133.245 176.689 138.801C174.484 144.139 174.387 150.238 174.3 156.144C174.212 162.269 174.116 168.683 171.395 171.395C168.674 174.107 162.304 174.212 156.144 174.3C150.238 174.387 144.139 174.484 138.801 176.689C133.245 178.99 128.721 183.33 124.346 187.521C119.971 191.712 115.5 196 112 196C108.5 196 103.994 191.695 99.6537 187.521C95.3138 183.348 90.755 178.99 85.1988 176.689C79.8613 174.484 73.7625 174.387 67.8563 174.3C61.7313 174.212 55.3175 174.116 52.605 171.395C49.8925 168.674 49.7875 162.304 49.7 156.144C49.6125 150.238 49.5163 144.139 47.3112 138.801C45.01 133.245 40.67 128.721 36.4787 124.346C32.2875 119.971 28 115.5 28 112C28 108.5 32.305 103.994 36.4787 99.6537C40.6525 95.3138 45.01 90.755 47.3112 85.1988C49.5163 79.8613 49.6125 73.7625 49.7 67.8563C49.7875 61.7313 49.8838 55.3175 52.605 52.605C55.3262 49.8925 61.6963 49.7875 67.8563 49.7C73.7625 49.6125 79.8613 49.5163 85.1988 47.3112C90.755 45.01 95.2787 40.67 99.6537 36.4787C104.029 32.2875 108.5 28 112 28C115.5 28 120.006 32.305 124.346 36.4787C128.686 40.6525 133.245 45.01 138.801 47.3112C144.139 49.5163 150.238 49.6125 156.144 49.7C162.269 49.7875 168.683 49.8838 171.395 52.605C174.107 55.3262 174.212 61.6963 174.3 67.8563C174.387 73.7625 174.484 79.8613 176.689 85.1988C178.99 90.755 183.33 95.2787 187.521 99.6537C191.712 104.029 196 108.5 196 112C196 115.5 191.695 120.006 187.521 124.346ZM151.952 86.0475C152.603 86.6976 153.12 87.4696 153.472 88.3194C153.824 89.1692 154.005 90.0801 154.005 91C154.005 91.9199 153.824 92.8308 153.472 93.6806C153.12 94.5304 152.603 95.3024 151.952 95.9525L102.952 144.952C102.302 145.603 101.53 146.12 100.681 146.472C99.8308 146.824 98.9199 147.005 98 147.005C97.0801 147.005 96.1692 146.824 95.3194 146.472C94.4696 146.12 93.6976 145.603 93.0475 144.952L72.0475 123.952C71.3971 123.302 70.8812 122.53 70.5292 121.68C70.1773 120.831 69.9961 119.92 69.9961 119C69.9961 118.08 70.1773 117.169 70.5292 116.32C70.8812 115.47 71.3971 114.698 72.0475 114.048C73.361 112.734 75.1425 111.996 77 111.996C77.9198 111.996 78.8305 112.177 79.6803 112.529C80.53 112.881 81.3021 113.397 81.9525 114.048L98 130.104L142.048 86.0475C142.698 85.3967 143.47 84.8804 144.319 84.5281C145.169 84.1758 146.08 83.9945 147 83.9945C147.92 83.9945 148.831 84.1758 149.681 84.5281C150.53 84.8804 151.302 85.3967 151.952 86.0475Z" fill="#6758BE"/>
</g>
</g>
</svg>
